<?xml version="1.0" standalone="no"?>
<!DOCTYPE svg PUBLIC "-//W3C//DTD SVG 1.1//EN" "http://www.w3.org/Graphics/SVG/1.1/DTD/svg11.dtd" >
<svg xmlns="http://www.w3.org/2000/svg" xmlns:xlink="http://www.w3.org/1999/xlink" version="1.1">
<metadata>
Created by FontForge 20190801 at Sun Jan 24 02:23:35 2021
 By Unknown
Copyright (c) 2021 by Anugrah Pasau
</metadata>
<defs>
<font id="CreatoDisplay-BoldItalic" horiz-adv-x="552" >
  <font-face 
    font-family="Creato Display"
    font-weight="700"
    font-style="italic"
    font-stretch="normal"
    units-per-em="1000"
    panose-1="2 11 5 3 0 0 0 9 0 4"
    ascent="804"
    descent="-196"
    x-height="516"
    cap-height="712"
    bbox="-209 -206 1257 946"
    underline-thickness="50"
    underline-position="-100"
    slope="-10"
    unicode-range="U+000D-25CA"
  />
<missing-glyph horiz-adv-x="560" 
d="M421 0h-372l125 712h372zM397 24l117 664h-316l-117 -664h316z" />
    <glyph glyph-name=".notdef" horiz-adv-x="560" 
d="M421 0h-372l125 712h372zM397 24l117 664h-316l-117 -664h316z" />
    <glyph glyph-name=".null" horiz-adv-x="0" 
 />
    <glyph glyph-name="nonmarkingreturn" horiz-adv-x="333" 
 />
    <glyph glyph-name="NULL" horiz-adv-x="0" 
 />
    <glyph glyph-name="NULL" horiz-adv-x="0" 
 />
    <glyph glyph-name="CR" unicode="&#xd;" horiz-adv-x="250" 
 />
    <glyph glyph-name="space" unicode=" " horiz-adv-x="250" 
 />
    <glyph glyph-name="exclam" unicode="!" horiz-adv-x="223" 
d="M68 -8q-33 0 -52 16.5t-19 42.5q0 37 23 59t66 22q32 0 51.5 -17t19.5 -42q0 -36 -23.5 -58.5t-65.5 -22.5zM138 216h-68l14 270l40 226h136l-40 -226z" />
    <glyph glyph-name="quotedbl" unicode="&#x22;" horiz-adv-x="429" 
d="M189 427h-94l28 285h137zM394 427h-94l29 285h137z" />
    <glyph glyph-name="numbersign" unicode="#" horiz-adv-x="679" 
d="M47 282h110l52 148h-110l34 98h110l65 184h110l-65 -184h129l65 184h110l-65 -184h110l-34 -98h-110l-52 -148h110l-35 -98h-110l-64 -184h-110l64 184h-129l-64 -184h-110l64 184h-110zM319 430l-52 -148h129l52 148h-129z" />
    <glyph glyph-name="dollar" unicode="$" horiz-adv-x="642" 
d="M283 -116h-56l19 108q-112 7 -169 59t-57 144q0 12 2 34h130q0 -119 112 -135l38 215l-40 6q-89 13 -131.5 54t-42.5 115q0 109 76.5 171.5t209.5 66.5l19 106h56l-19 -108q101 -10 155 -62.5t54 -138.5q0 -17 -1 -26h-126q0 106 -100 124l-36 -201l41 -6
q191 -29 191 -178q0 -112 -79 -175.5t-228 -66.5zM472 215q0 37 -25.5 56.5t-90.5 29.5l-37 -209q70 4 111.5 36t41.5 87zM224 503q0 -36 21 -53.5t77 -25.5l34 195q-60 -4 -96 -34t-36 -82z" />
    <glyph glyph-name="percent" unicode="%" horiz-adv-x="893" 
d="M219 357q84 0 110 140q6 32 6 63q0 87 -69 87q-84 0 -110 -140q-6 -32 -6 -63q0 -87 69 -87zM212 286q-71 0 -109.5 39.5t-38.5 114.5q0 23 6 68q19 103 67.5 156.5t135.5 53.5q71 0 109.5 -39.5t38.5 -114.5q0 -24 -6 -68q-19 -103 -67.5 -156.5t-135.5 -53.5zM250 0
h-79l507 712h79zM661 65q86 0 110 140q7 38 7 63q0 87 -69 87q-84 0 -110 -140q-6 -32 -6 -63q0 -87 68 -87zM655 -6q-71 0 -110 40t-39 114q0 26 7 68q18 103 66.5 156.5t135.5 53.5q72 0 110.5 -39.5t38.5 -114.5q0 -27 -7 -68q-18 -103 -66.5 -156.5t-135.5 -53.5z" />
    <glyph glyph-name="ampersand" unicode="&#x26;" horiz-adv-x="701" 
d="M513 0l-43 52q-100 -62 -223 -62q-111 0 -171.5 47.5t-60.5 126.5q0 78 41.5 129t142.5 88q-45 65 -45 125q0 94 64 155t166 61q90 0 141 -43t51 -111q0 -77 -53.5 -124.5t-165.5 -84.5l132 -160q48 59 74 146h116q-42 -136 -126 -224l100 -121h-140zM263 88q79 0 145 39
l-161 194q-102 -44 -102 -140q0 -42 33 -67.5t85 -25.5zM277 509q0 -42 33 -90q73 25 108 59t35 85q0 32 -20 49.5t-54 17.5q-48 0 -75 -34t-27 -87z" />
    <glyph glyph-name="quotesingle" unicode="'" horiz-adv-x="223" 
d="M189 427h-94l28 285h137z" />
    <glyph glyph-name="parenleft" unicode="(" horiz-adv-x="272" 
d="M37 168q0 360 227 614h96q-207 -275 -207 -614q0 -156 35 -364h-96q-55 184 -55 364z" />
    <glyph glyph-name="parenright" unicode=")" horiz-adv-x="272" 
d="M247 418q0 -360 -227 -614h-97q208 275 208 614q0 161 -36 364h97q55 -184 55 -364z" />
    <glyph glyph-name="asterisk" unicode="*" horiz-adv-x="431" 
d="M304 326l-55 123l-98 -123l-69 57l114 112l-135 35l46 91l125 -54l16 145h95l-35 -145l144 54l14 -91l-148 -35l75 -112z" />
    <glyph glyph-name="plus" unicode="+" horiz-adv-x="532" 
d="M190 132l31 175h-171l17 98h171l32 175h106l-32 -175h171l-17 -98h-171l-31 -175h-106z" />
    <glyph glyph-name="comma" unicode="," horiz-adv-x="223" 
d="M19 -148l-61 29q25 33 37 64.5t22 86.5l18 104h111l-18 -104q-21 -125 -109 -180z" />
    <glyph glyph-name="hyphen" unicode="-" horiz-adv-x="364" 
d="M318 238h-280l17 98h280z" />
    <glyph glyph-name="period" unicode="." horiz-adv-x="223" 
d="M68 -8q-33 0 -52 16.5t-19 42.5q0 37 23 59t66 22q32 0 51.5 -17t19.5 -42q0 -36 -23.5 -58.5t-65.5 -22.5z" />
    <glyph glyph-name="slash" unicode="/" horiz-adv-x="379" 
d="M77 0h-122l382 712h122z" />
    <glyph glyph-name="zero" unicode="0" horiz-adv-x="639" 
d="M285 -10q-120 0 -185.5 67.5t-65.5 193.5q0 48 12 115q30 174 112 265t229 91q121 0 186.5 -67.5t65.5 -193.5q0 -48 -12 -115q-31 -174 -112.5 -265t-229.5 -91zM294 95q158 0 204 251q12 75 12 115q0 156 -131 156q-158 0 -204 -251q-12 -75 -12 -115q0 -156 131 -156z
" />
    <glyph glyph-name="one" unicode="1" horiz-adv-x="377" 
d="M278 0h-130l90 511q-21 -16 -65.5 -25.5t-78.5 -9.5h-28l17 95q81 4 133 38t84 103h103z" />
    <glyph glyph-name="two" unicode="2" horiz-adv-x="579" 
d="M508 0h-525l9 59q19 119 71 179.5t169 100.5l111 38q125 43 125 143q0 47 -31 72t-82 25q-129 0 -154 -144h-119q14 121 85.5 185t197.5 64q108 0 170.5 -52.5t62.5 -142.5q0 -91 -49.5 -147t-162.5 -94l-119 -40q-61 -21 -93 -54t-44 -87h396z" />
    <glyph glyph-name="three" unicode="3" horiz-adv-x="603" 
d="M267 -10q-115 0 -180 52t-65 156q0 13 2 41h119q0 -79 34 -111.5t105 -32.5q74 0 116 35.5t42 99.5q0 44 -26 64t-81 20h-89l18 98h75q147 0 147 111q0 44 -33 69t-93 25q-135 0 -159 -124h-120q12 109 83 169t207 60q110 0 177 -51t67 -131q0 -137 -146 -174
q47 -14 73.5 -47.5t26.5 -83.5q0 -116 -77.5 -180.5t-222.5 -64.5z" />
    <glyph glyph-name="four" unicode="4" horiz-adv-x="619" 
d="M453 0h-126l31 176h-345l22 122l390 414h153l-76 -432h95l-19 -104h-95zM376 280l54 302l-284 -302h230z" />
    <glyph glyph-name="five" unicode="5" horiz-adv-x="591" 
d="M262 -10q-110 0 -172 53.5t-64 145.5h126q5 -44 35.5 -72.5t86.5 -28.5q75 0 117 46.5t42 122.5q0 55 -32.5 85.5t-88.5 30.5q-107 0 -145 -93h-121l136 432h423l-18 -105h-318l-60 -187q51 44 132 44q102 0 161.5 -54.5t59.5 -142.5q0 -123 -76.5 -200t-223.5 -77z" />
    <glyph glyph-name="six" unicode="6" horiz-adv-x="605" 
d="M276 -10q-116 0 -179 62.5t-63 177.5q0 136 40 246.5t119.5 178t184.5 67.5t164.5 -48t63.5 -144h-120q-10 94 -108 94q-147 0 -200 -242q56 82 177 82q102 0 161.5 -54.5t59.5 -142.5q0 -123 -76.5 -200t-223.5 -77zM286 88q75 0 118 46.5t43 122.5q0 53 -32.5 84.5
t-89.5 31.5q-75 0 -118 -46.5t-43 -122.5q0 -54 32.5 -85t89.5 -31z" />
    <glyph glyph-name="seven" unicode="7" horiz-adv-x="505" 
d="M228 0h-134q65 375 344 607h-361l19 105h475l-19 -105q-144 -128 -215 -260.5t-109 -346.5z" />
    <glyph glyph-name="eight" unicode="8" horiz-adv-x="605" 
d="M268 -10q-119 0 -187 50.5t-68 130.5q0 82 47.5 131t133.5 63q-103 43 -103 137q0 98 71 159t208 61q110 0 174 -50t64 -128q0 -138 -158 -179q120 -38 120 -145q0 -106 -75.5 -168t-226.5 -62zM276 88q70 0 117.5 33.5t47.5 92.5q0 45 -35 72.5t-96 27.5
q-70 0 -117.5 -33.5t-47.5 -92.5q0 -45 35 -72.5t96 -27.5zM333 412q63 0 107 31t44 88q0 42 -33 67.5t-87 25.5q-63 0 -106.5 -31t-43.5 -88q0 -42 32.5 -67.5t86.5 -25.5z" />
    <glyph glyph-name="nine" unicode="9" horiz-adv-x="605" 
d="M286 248q-102 0 -161.5 54.5t-59.5 142.5q0 123 76.5 200t223.5 77q116 0 179 -62.5t63 -177.5q0 -136 -40 -246.5t-119.5 -178t-184.5 -67.5t-164.5 48t-63.5 143h120q10 -93 108 -93q148 0 200 242q-56 -82 -177 -82zM317 339q74 0 117 46.5t43 122.5q0 54 -32.5 85
t-89.5 31q-75 0 -118 -46.5t-43 -122.5q0 -54 33 -85t90 -31z" />
    <glyph glyph-name="colon" unicode=":" horiz-adv-x="223" 
d="M68 -8q-33 0 -52 16.5t-19 42.5q0 37 23 59t66 22q32 0 51.5 -17t19.5 -42q0 -36 -23.5 -58.5t-65.5 -22.5zM132 358q-32 0 -51.5 17t-19.5 42q0 36 23.5 58.5t65.5 22.5q33 0 52 -16.5t19 -42.5q0 -37 -23 -59t-66 -22z" />
    <glyph glyph-name="semicolon" unicode=";" horiz-adv-x="223" 
d="M19 -148l-61 29q25 33 37 64.5t22 86.5l18 104h111l-18 -104q-21 -125 -109 -180zM132 358q-32 0 -51.5 17t-19.5 42q0 36 23.5 58.5t65.5 22.5q33 0 52 -16.5t19 -42.5q0 -37 -23 -59t-66 -22z" />
    <glyph glyph-name="less" unicode="&#x3c;" horiz-adv-x="532" 
d="M466 120l-416 187l17 98l482 187l-20 -118l-347 -122l303 -123z" />
    <glyph glyph-name="equal" unicode="=" horiz-adv-x="532" 
d="M481 210h-448l17 93h448zM516 409h-448l17 93h448z" />
    <glyph glyph-name="greater" unicode="&#x3e;" horiz-adv-x="532" 
d="M498 307l-481 -187l20 118l347 122l-303 123l19 109l415 -187z" />
    <glyph glyph-name="question" unicode="?" horiz-adv-x="543" 
d="M218 -8q-33 0 -52.5 17t-19.5 42q0 37 23.5 59t65.5 22q33 0 52.5 -17t19.5 -42q0 -36 -23.5 -58.5t-65.5 -22.5zM308 216h-109l6 32q10 54 37.5 91t58 55.5t60 35t49 42t19.5 65.5q0 37 -28.5 58.5t-71.5 21.5q-112 0 -136 -124h-125q12 109 81.5 169t189.5 60
q104 0 165 -49t61 -126q0 -57 -23.5 -96.5t-58.5 -61t-70.5 -39t-64 -42.5t-34.5 -60z" />
    <glyph glyph-name="at" unicode="@" horiz-adv-x="915" 
d="M401 80q-76 0 -117.5 48t-41.5 124q0 115 58 189.5t159 74.5q98 0 124 -79l13 72h104l-49 -283q-2 -14 -2 -20q0 -45 47 -45q53 0 86 59.5t33 170.5q0 112 -77.5 182.5t-223.5 70.5q-189 0 -293.5 -112.5t-104.5 -297.5q0 -134 78 -208t221 -74q106 0 205 43l-14 -78
q-100 -43 -200 -43q-168 0 -272.5 95.5t-104.5 250.5q0 234 133 368t362 134q89 0 162.5 -27.5t119.5 -73t71 -101t25 -114.5q0 -158 -63 -242t-176 -84q-98 0 -123 73q-46 -73 -139 -73zM433 161q57 0 92 51t35 125q0 98 -84 98q-57 0 -92 -51t-35 -126q0 -47 21.5 -72
t62.5 -25z" />
    <glyph glyph-name="A" unicode="A" horiz-adv-x="712" 
d="M660 0h-133l-28 148h-310l-81 -148h-146l390 712h168zM483 253l-61 335l-181 -335h242z" />
    <glyph glyph-name="B" unicode="B" horiz-adv-x="679" 
d="M646 228q0 -228 -272 -228h-364l125 712h317q111 0 171.5 -41t60.5 -122q0 -79 -37 -122t-115 -61q54 -14 84 -52.5t30 -85.5zM510 228q0 85 -106 85h-203l-37 -211h220q62 0 94 34t32 92zM548 529q0 81 -115 81h-181l-35 -197h204q59 0 93 30t34 86z" />
    <glyph glyph-name="C" unicode="C" horiz-adv-x="736" 
d="M346 -10q-144 0 -225.5 78.5t-81.5 209.5q0 196 110 320t299 124q125 0 209.5 -64.5t84.5 -177.5q0 -8 -2 -28h-127q0 70 -47 114.5t-127 44.5q-124 0 -194 -93t-70 -230q0 -87 49 -137t132 -50q85 0 143 44.5t80 120.5h129q-18 -129 -114.5 -202.5t-247.5 -73.5z" />
    <glyph glyph-name="D" unicode="D" horiz-adv-x="719" 
d="M714 434q0 -200 -104.5 -317t-303.5 -117h-296l125 712h270q150 0 229.5 -72.5t79.5 -205.5zM578 424q0 87 -46 134t-129 47h-151l-88 -498h157q123 0 190 90t67 227z" />
    <glyph glyph-name="E" unicode="E" horiz-adv-x="603" 
d="M529 0h-519l125 712h519l-20 -111h-383l-32 -186h351l-19 -104h-351l-35 -200h383z" />
    <glyph glyph-name="F" unicode="F" horiz-adv-x="589" 
d="M146 0h-136l125 712h519l-20 -111h-383l-32 -186h351l-19 -104h-351z" />
    <glyph glyph-name="G" unicode="G" horiz-adv-x="753" 
d="M333 -10q-138 0 -216 78t-78 210q0 196 110 320t299 124q137 0 215 -64t78 -156q0 -16 -3 -29h-122q-5 61 -50.5 99.5t-126.5 38.5q-124 0 -194 -93t-70 -230q0 -87 49 -137t132 -50q95 0 147.5 49.5t75.5 144.5h-173l16 93h308l-67 -388h-99l9 118q-40 -66 -94 -97
t-146 -31z" />
    <glyph glyph-name="H" unicode="H" horiz-adv-x="719" 
d="M619 0h-136l53 305h-337l-53 -305h-136l125 712h136l-51 -291h337l51 291h136z" />
    <glyph glyph-name="I" unicode="I" horiz-adv-x="246" 
d="M146 0h-136l125 712h136z" />
    <glyph glyph-name="J" unicode="J" horiz-adv-x="567" 
d="M239 -10q-224 0 -224 186q0 24 7 66l4 22h129l-4 -22q-5 -33 -5 -51q0 -49 25.5 -69.5t74.5 -20.5q59 0 91.5 31t46.5 111l82 469h136l-83 -469q-23 -133 -85 -193t-195 -60z" />
    <glyph glyph-name="K" unicode="K" horiz-adv-x="667" 
d="M615 0h-151l-164 322l-122 -108l-37 -214h-136l125 712h136l-57 -325l355 325h166l-329 -295z" />
    <glyph glyph-name="L" unicode="L" horiz-adv-x="547" 
d="M487 0h-477l125 712h136l-106 -601h341z" />
    <glyph glyph-name="M" unicode="M" horiz-adv-x="897" 
d="M797 0h-130l104 589l-310 -589h-115l-103 589l-104 -589h-129l125 712h209l90 -507l269 507h219z" />
    <glyph glyph-name="N" unicode="N" horiz-adv-x="719" 
d="M619 0h-146l-241 528l-93 -528h-129l125 712h146l240 -528l93 528h130z" />
    <glyph glyph-name="O" unicode="O" horiz-adv-x="761" 
d="M346 -10q-144 0 -225.5 78.5t-81.5 209.5q0 196 110 320t299 124q143 0 225.5 -78.5t82.5 -209.5q0 -198 -108 -321t-302 -123zM356 101q124 0 194 93t70 230q0 87 -49 137t-132 50q-124 0 -194 -93t-70 -230q0 -87 49 -137t132 -50z" />
    <glyph glyph-name="P" unicode="P" horiz-adv-x="649" 
d="M664 520q0 -125 -74 -193.5t-211 -68.5h-188l-45 -258h-136l125 712h298q107 0 169 -51t62 -141zM528 509q0 101 -131 101h-144l-44 -250h167q75 0 113.5 38t38.5 111z" />
    <glyph glyph-name="Q" unicode="Q" horiz-adv-x="761" 
d="M673 -80h-111l-54 97q-76 -27 -162 -27q-144 0 -225.5 78.5t-81.5 209.5q0 196 110 320t299 124q143 0 225.5 -78.5t82.5 -209.5q0 -121 -42 -217t-121 -153zM356 101q54 0 96 18l-105 191h111l75 -136q87 92 87 250q0 87 -49 137t-132 50q-124 0 -194 -93t-70 -230
q0 -87 49 -137t132 -50z" />
    <glyph glyph-name="R" unicode="R" horiz-adv-x="659" 
d="M666 545q0 -90 -38 -139t-119 -72q93 -21 93 -114q0 -16 -3 -36l-20 -112q-4 -23 -4 -47q0 -18 2 -25h-130q-7 21 -7 43q0 13 3 29l19 107q4 26 4 34q0 75 -101 75h-169l-50 -288h-136l125 712h311q105 0 162.5 -45t57.5 -122zM529 524q0 47 -31 66.5t-97 19.5h-148
l-39 -220h171q74 0 109 33t35 101z" />
    <glyph glyph-name="S" unicode="S" horiz-adv-x="642" 
d="M287 -10q-132 0 -199.5 52t-67.5 153q0 12 2 34h130q0 -137 150 -137q78 0 124 32.5t46 90.5q0 37 -26.5 57t-94.5 30l-89 13q-89 13 -131.5 54t-42.5 115q0 112 80.5 175t220.5 63q120 0 185 -54t65 -149q0 -17 -1 -26h-126q0 127 -138 127q-67 0 -108.5 -30.5
t-41.5 -86.5q0 -37 22 -54.5t82 -25.5l89 -13q191 -29 191 -178q0 -115 -82.5 -178.5t-238.5 -63.5z" />
    <glyph glyph-name="T" unicode="T" horiz-adv-x="599" 
d="M322 0h-136l106 601h-217l20 111h569l-20 -111h-216z" />
    <glyph glyph-name="U" unicode="U" horiz-adv-x="699" 
d="M315 -10q-133 0 -203.5 54.5t-70.5 160.5q0 31 6 64l78 443h136l-76 -430q-5 -32 -5 -53q0 -128 144 -128q86 0 133.5 41.5t65.5 139.5l75 430h136l-78 -443q-27 -151 -106 -215t-235 -64z" />
    <glyph glyph-name="V" unicode="V" horiz-adv-x="712" 
d="M395 0h-168l-140 712h139l101 -575l305 575h153z" />
    <glyph glyph-name="W" unicode="W" horiz-adv-x="1010" 
d="M755 0h-160l-41 523l-223 -523h-167l-77 712h144l45 -548l236 548h140l43 -548l239 548h149z" />
    <glyph glyph-name="X" unicode="X" horiz-adv-x="692" 
d="M640 0h-152l-134 260l-225 -260h-167l315 363l-180 349h152l126 -246l213 246h167l-302 -349z" />
    <glyph glyph-name="Y" unicode="Y" horiz-adv-x="692" 
d="M233 0l50 288l-196 424h150l129 -297l235 297h164l-346 -424l-50 -288h-136z" />
    <glyph glyph-name="Z" unicode="Z" horiz-adv-x="587" 
d="M508 0h-520l16 93l424 508h-324l19 111h500l-16 -93l-425 -508h345z" />
    <glyph glyph-name="bracketleft" unicode="[" horiz-adv-x="345" 
d="M251 -196h-276l172 978h276l-15 -92h-160l-140 -794h160z" />
    <glyph glyph-name="backslash" unicode="\" horiz-adv-x="379" 
d="M334 0h-112l-142 712h112z" />
    <glyph glyph-name="bracketright" unicode="]" horiz-adv-x="345" 
d="M210 -196h-276l17 92h159l140 794h-160l15 92h277z" />
    <glyph glyph-name="asciicircum" unicode="^" horiz-adv-x="424" 
d="M435 399h-113l-51 192l-119 -192h-114l205 313h98z" />
    <glyph glyph-name="underscore" unicode="_" horiz-adv-x="488" 
d="M418 -139h-487l15 86h487z" />
    <glyph glyph-name="grave" unicode="`" horiz-adv-x="500" 
d="M415 584h-98l-101 152h133z" />
    <glyph glyph-name="a" unicode="a" 
d="M176 -10q-78 0 -123.5 38t-45.5 103q0 151 193 166l121 11q73 5 73 58q0 32 -23.5 50t-63.5 18q-92 0 -107 -81h-128q16 173 245 173q94 0 150 -38.5t56 -110.5q0 -21 -4 -38l-36 -207q-12 -64 -12 -99q0 -21 5 -33h-117q-12 17 -12 43q0 11 3 28q-61 -81 -174 -81z
M219 78q59 0 99 36.5t49 93.5l7 42q-13 -15 -67 -20l-77 -7q-94 -7 -94 -77q0 -32 22 -50t61 -18z" />
    <glyph glyph-name="b" unicode="b" horiz-adv-x="589" 
d="M298 -10q-124 0 -156 107l-17 -97h-123l125 712h129l-46 -265q54 79 159 79q94 0 145.5 -59t51.5 -153q0 -140 -72 -232t-196 -92zM277 88q72 0 116 62.5t44 155.5q0 59 -27.5 90.5t-77.5 31.5q-72 0 -116 -62.5t-44 -155.5q0 -59 27.5 -90.5t77.5 -31.5z" />
    <glyph glyph-name="c" unicode="c" horiz-adv-x="546" 
d="M249 -10q-104 0 -165 57t-61 155q0 149 80.5 236.5t219.5 87.5q104 0 161.5 -51.5t57.5 -124.5q0 -14 -3 -30h-119q0 45 -27 76.5t-79 31.5q-75 0 -118.5 -62t-43.5 -156q0 -58 28.5 -90t77.5 -32q50 0 88 28.5t55 83.5h120q-17 -96 -84.5 -153t-187.5 -57z" />
    <glyph glyph-name="d" unicode="d" horiz-adv-x="589" 
d="M220 -10q-94 0 -145.5 59t-51.5 153q0 140 72 232t196 92q118 0 152 -97l50 283h129l-125 -712h-123l14 79q-58 -89 -168 -89zM257 88q72 0 116 62.5t44 155.5q0 59 -27.5 90.5t-77.5 31.5q-72 0 -116 -62.5t-44 -155.5q0 -59 27.5 -90.5t77.5 -31.5z" />
    <glyph glyph-name="e" unicode="e" horiz-adv-x="567" 
d="M252 -10q-108 0 -168.5 57t-60.5 155q0 145 81 234.5t216 89.5q107 0 165.5 -60.5t58.5 -151.5q0 -44 -12 -83h-381q-2 -12 -2 -35q0 -57 29 -87.5t82 -30.5q96 0 134 85h119q-25 -82 -90.5 -127.5t-170.5 -45.5zM313 438q-54 0 -93 -31.5t-55 -91.5h253q0 123 -105 123z
" />
    <glyph glyph-name="f" unicode="f" horiz-adv-x="352" 
d="M175 0h-129l75 424h-82l16 92h82l8 45q15 83 53.5 119.5t119.5 36.5q41 0 94 -5l-15 -87l-55 1q-32 0 -46.5 -14.5t-20.5 -46.5l-9 -49h111l-15 -92h-112z" />
    <glyph glyph-name="g" unicode="g" horiz-adv-x="589" 
d="M225 20q-91 0 -144.5 55.5t-53.5 141.5q0 138 70.5 223.5t193.5 85.5t156 -106l17 96h123l-83 -474q-23 -131 -94.5 -189.5t-194.5 -58.5q-95 0 -152.5 40.5t-57.5 121.5q0 15 1 23h117q0 -48 27 -74t79 -26q117 0 139 127l16 89q-54 -75 -159 -75zM259 112q70 0 114 61
t44 148q0 52 -28 82.5t-75 30.5q-70 0 -114 -61t-44 -148q0 -52 28 -82.5t75 -30.5z" />
    <glyph glyph-name="h" unicode="h" 
d="M460 0h-129l55 316q3 17 3 31q-2 74 -74 74q-51 0 -87 -35.5t-47 -99.5l-50 -286h-129l125 712h129l-46 -261q57 75 153 75q76 0 118.5 -37t42.5 -105q0 -13 -4 -43z" />
    <glyph glyph-name="i" unicode="i" horiz-adv-x="223" 
d="M131 0h-129l90 516h129zM174 593q-31 0 -49.5 16t-18.5 41q0 35 23 56t63 21q31 0 49 -16t18 -41q0 -34 -22.5 -55.5t-62.5 -21.5z" />
    <glyph glyph-name="j" unicode="j" horiz-adv-x="223" 
d="M-116 -196l16 92h35q48 0 58 58l99 562h129l-98 -561q-28 -151 -160 -151h-79zM174 593q-31 0 -49.5 16t-18.5 41q0 35 23 56t63 21q31 0 49 -16t18 -41q0 -34 -22.5 -55.5t-62.5 -21.5z" />
    <glyph glyph-name="k" unicode="k" horiz-adv-x="562" 
d="M510 0h-143l-113 226l-98 -82l-25 -144h-129l125 712h129l-72 -413l249 217h157l-239 -205z" />
    <glyph glyph-name="l" unicode="l" horiz-adv-x="223" 
d="M131 0h-129l125 712h129z" />
    <glyph glyph-name="m" unicode="m" horiz-adv-x="806" 
d="M714 0h-124l56 320q3 12 3 32q0 69 -60 69q-43 0 -75.5 -32.5t-42.5 -91.5l-51 -297h-125l56 320q4 16 4 32q0 69 -61 69q-43 0 -75 -33t-41 -91l-52 -297h-124l90 516h123l-13 -75q24 39 61 62t79 23q112 0 138 -90q57 90 157 90q65 0 103 -38t38 -104q0 -22 -4 -43z
" />
    <glyph glyph-name="n" unicode="n" 
d="M460 0h-129l55 316q3 17 3 31q-2 74 -74 74q-51 0 -87 -35.5t-47 -99.5l-50 -286h-129l90 516h123l-13 -75q59 85 161 85q76 0 118.5 -37t42.5 -105q0 -13 -4 -43z" />
    <glyph glyph-name="o" unicode="o" horiz-adv-x="579" 
d="M262 88q73 0 119 63t46 155q0 59 -29 90.5t-81 31.5q-73 0 -119 -63t-46 -155q0 -59 29 -90.5t81 -31.5zM252 -10q-106 0 -167.5 57t-61.5 155q0 148 83 236t220 88q107 0 168.5 -57t61.5 -155q0 -149 -83 -236.5t-221 -87.5z" />
    <glyph glyph-name="p" unicode="p" horiz-adv-x="589" 
d="M298 -10q-118 0 -152 97l-50 -283h-129l125 712h123l-14 -79q58 89 168 89q94 0 145.5 -59t51.5 -153q0 -140 -72 -232t-196 -92zM277 88q72 0 116 62.5t44 155.5q0 59 -27.5 90.5t-77.5 31.5q-72 0 -116 -62.5t-44 -155.5q0 -59 27.5 -90.5t77.5 -31.5z" />
    <glyph glyph-name="q" unicode="q" horiz-adv-x="589" 
d="M220 -10q-94 0 -145.5 59t-51.5 153q0 140 72 232t196 92t156 -107l17 97h123l-125 -712h-129l46 265q-54 -79 -159 -79zM257 88q72 0 116 62.5t44 155.5q0 59 -27.5 90.5t-77.5 31.5q-72 0 -116 -62.5t-44 -155.5q0 -59 27.5 -90.5t77.5 -31.5z" />
    <glyph glyph-name="r" unicode="r" horiz-adv-x="381" 
d="M131 0h-129l90 516h123l-19 -106q50 113 154 113q30 0 56 -7l-20 -113l-60 1q-60 0 -99.5 -40t-52.5 -118z" />
    <glyph glyph-name="s" unicode="s" horiz-adv-x="523" 
d="M224 -10q-103 0 -159.5 40.5t-56.5 107.5q0 16 2 25h121q0 -88 106 -88q54 0 83.5 21t29.5 56q0 44 -70 54l-78 11q-71 10 -107 42.5t-36 94.5q0 83 66 127.5t174 44.5q86 0 144 -34t58 -107q0 -8 -2 -24h-121q0 40 -20.5 60t-70.5 20q-45 0 -72 -18.5t-27 -55.5
q0 -23 12.5 -33.5t41.5 -15.5l77 -11q80 -12 120 -46t40 -100q0 -79 -68 -125t-187 -46z" />
    <glyph glyph-name="t" unicode="t" horiz-adv-x="358" 
d="M211 -5q-76 0 -110.5 22.5t-34.5 78.5q0 17 5 49l50 279h-82l16 92h81l28 156h129l-27 -156h111l-15 -92h-112l-50 -284q-2 -12 -2 -18q0 -36 52 -36l53 1l-16 -87q-55 -5 -76 -5z" />
    <glyph glyph-name="u" unicode="u" 
d="M189 -10q-76 0 -118.5 37t-42.5 105q0 13 4 43l60 341h129l-55 -316q-3 -17 -3 -31q2 -74 74 -74q51 0 87 35t47 100l50 286h129l-90 -516h-123l13 75q-59 -85 -161 -85z" />
    <glyph glyph-name="v" unicode="v" 
d="M309 0h-156l-101 516h129l64 -403l204 403h141z" />
    <glyph glyph-name="w" unicode="w" horiz-adv-x="840" 
d="M611 0h-134l-40 343l-159 -343h-139l-87 516h132l54 -369l166 369h116l38 -369l182 369h138z" />
    <glyph glyph-name="x" unicode="x" horiz-adv-x="532" 
d="M480 0h-136l-87 169l-145 -169h-150l232 270l-132 246h136l79 -155l133 155h150l-217 -246z" />
    <glyph glyph-name="y" unicode="y" 
d="M-26 -196l16 92h52q49 0 80 28t31 73q0 13 -3 26l-98 493h128l61 -416l207 416h142l-270 -493q-68 -124 -133.5 -171.5t-161.5 -47.5h-51z" />
    <glyph glyph-name="z" unicode="z" horiz-adv-x="472" 
d="M403 0h-425l15 85l317 339h-247l15 92h405l-14 -85l-317 -339h267z" />
    <glyph glyph-name="braceleft" unicode="{" horiz-adv-x="345" 
d="M251 -196h-64q-67 0 -104 33t-37 92q0 20 4 37l38 216q2 10 2 16q0 22 -14 35.5t-40 13.5h-24l15 92h25q30 0 50 18t25 47l38 216q28 162 181 162h77l-15 -92h-47q-67 0 -79 -68l-37 -213q-19 -106 -120 -116q38 -4 59.5 -31t21.5 -63q0 -8 -2 -22l-38 -213
q-2 -10 -2 -16q0 -24 14.5 -38t42.5 -14h47z" />
    <glyph glyph-name="bar" unicode="|" horiz-adv-x="213" 
d="M78 -196h-103l172 978h103z" />
    <glyph glyph-name="braceright" unicode="}" horiz-adv-x="345" 
d="M-66 -196l16 92h46q68 0 80 68l37 213q18 106 120 116q-38 4 -59.5 31t-21.5 63q0 8 2 22l38 213q2 10 2 16q0 24 -15 38t-43 14h-46l16 92h64q68 0 104.5 -33t36.5 -92q0 -17 -3 -37l-38 -216q-2 -10 -2 -16q0 -22 14 -35.5t39 -13.5h25l-16 -92h-24q-30 0 -50 -18
t-25 -47l-38 -216q-28 -162 -182 -162h-77z" />
    <glyph glyph-name="asciitilde" unicode="~" horiz-adv-x="532" 
d="M380 271q-43 0 -103 38.5t-86 38.5q-58 0 -72 -77h-75q10 82 48.5 126t94.5 44q43 0 103 -38.5t86 -38.5q58 0 72 77h75q-10 -82 -48.5 -126t-94.5 -44z" />
    <glyph glyph-name="exclamdown" unicode="&#xa1;" horiz-adv-x="223" 
d="M100 -196h-136l40 226l81 270h69l-14 -270zM138 384q-33 0 -52.5 17t-19.5 42q0 36 23.5 58.5t65.5 22.5q33 0 52.5 -17t19.5 -42q0 -37 -23.5 -59t-65.5 -22z" />
    <glyph glyph-name="cent" unicode="&#xa2;" horiz-adv-x="546" 
d="M244 -116h-48l19 108q-90 9 -141 64.5t-51 145.5q0 146 76.5 233t209.5 91l19 106h48l-19 -108q88 -9 136.5 -58.5t48.5 -115.5q0 -14 -3 -30h-119q0 38 -20.5 67.5t-60.5 37.5l-59 -336q91 13 121 111h120q-17 -94 -81.5 -150t-177.5 -60zM152 210q0 -50 21.5 -81
t58.5 -39l60 336q-66 -9 -103 -69.5t-37 -146.5z" />
    <glyph glyph-name="sterling" unicode="&#xa3;" horiz-adv-x="603" 
d="M476 303h-214v-11q0 -109 -90 -169q40 10 68 10q33 0 102 -19t101 -19q71 0 108 22l-17 -97q-52 -30 -116 -30q-31 0 -109 21t-119 21q-53 0 -178 -42l-16 90q70 25 106.5 83.5t36.5 116.5q0 7 -2 23h-102l10 59h80q-19 72 -19 106q0 114 75.5 184t206.5 70
q112 0 171.5 -51t59.5 -146q0 -10 -2 -32h-123q0 124 -110 124q-62 0 -102 -40t-40 -110q0 -29 13 -105h231z" />
    <glyph glyph-name="currency" unicode="&#xa4;" horiz-adv-x="603" 
d="M279 128q-74 0 -128 44l-89 -76l-40 50l88 75q-23 44 -23 94q0 98 71 176l-62 75l58 49l62 -75q66 43 143 43t126 -44l90 76l40 -49l-90 -76q25 -41 25 -93q0 -99 -72 -176l63 -75l-58 -50l-62 76q-68 -44 -142 -44zM296 227q66 0 111 45t45 108q0 46 -30.5 75.5
t-80.5 29.5q-66 0 -111 -45.5t-45 -107.5q0 -46 30.5 -75.5t80.5 -29.5z" />
    <glyph glyph-name="yen" unicode="&#xa5;" horiz-adv-x="642" 
d="M518 113h-158l-19 -113h-130l20 113h-159l11 59h158l17 93h-159l11 59h135l-183 388h147l131 -303l239 303h161l-320 -388h136l-11 -59h-158l-16 -93h158z" />
    <glyph glyph-name="brokenbar" unicode="&#xa6;" horiz-adv-x="213" 
d="M78 -196h-103l74 418h103zM177 364h-103l73 418h103z" />
    <glyph glyph-name="section" unicode="&#xa7;" horiz-adv-x="615" 
d="M587 240q0 -125 -138 -153q47 -43 47 -101q0 -92 -65 -142t-191 -50q-103 0 -159.5 40.5t-56.5 107.5q0 16 2 25h120q0 -88 106 -88q115 0 115 93q0 61 -54 91l-189 101q-88 46 -88 123q0 122 145 148q-39 33 -39 96q0 191 241 191q82 0 142 -34.5t60 -106.5q0 -8 -2 -24
h-120q0 80 -93 80q-99 0 -99 -96q0 -57 48 -82l174 -93q48 -25 71 -54t23 -72zM457 223q0 51 -48 78l-156 83q-88 -10 -88 -84q0 -47 43 -71l170 -92q79 11 79 86z" />
    <glyph glyph-name="dieresis" unicode="&#xa8;" horiz-adv-x="500" 
d="M221 603q-27 0 -43 13.5t-16 34.5q0 30 19 48t54 18q26 0 42 -13.5t16 -34.5q0 -29 -19 -47.5t-53 -18.5zM406 603q-26 0 -42 13.5t-16 34.5q0 30 18.5 48t53.5 18q26 0 42 -13.5t16 -34.5q0 -30 -18.5 -48t-53.5 -18z" />
    <glyph glyph-name="copyright" unicode="&#xa9;" horiz-adv-x="809" 
d="M421 -10q-171 0 -274 101t-103 265t103 265t274 101t274.5 -101t103.5 -265t-103.5 -265t-274.5 -101zM421 68q134 0 212.5 79.5t78.5 208.5t-78.5 208.5t-212.5 79.5q-133 0 -211.5 -79.5t-78.5 -208.5t78.5 -208.5t211.5 -79.5zM426 168q-85 0 -133 51t-48 137t48 137
t133 51q83 0 127 -42.5t44 -101.5h-87q-11 73 -84 73q-42 0 -65 -29.5t-23 -87.5t23 -87.5t65 -29.5q72 0 84 76h87q0 -62 -44.5 -104.5t-126.5 -42.5z" />
    <glyph glyph-name="ordfeminine" unicode="&#xaa;" horiz-adv-x="490" 
d="M197 256q-68 0 -107.5 33t-39.5 90q0 130 168 144l105 9q62 5 62 51q0 28 -20.5 43t-53.5 15q-80 0 -92 -69h-112q13 150 213 150q82 0 130 -33t48 -96q0 -23 -2 -34l-32 -180q-10 -53 -10 -86q0 -20 4 -28h-103q-11 17 -11 37q0 8 3 25q-53 -71 -150 -71zM235 333
q49 0 84 31.5t43 81.5l6 35q-14 -13 -57 -18l-67 -5q-80 -6 -80 -67q0 -26 18.5 -42t52.5 -16z" />
    <glyph glyph-name="guillemotleft" unicode="&#xab;" horiz-adv-x="478" 
d="M187 91l-136 147l17 98l189 147l-21 -119l-103 -81l74 -81zM393 91l-136 147l17 98l189 147l-21 -119l-103 -81l74 -81z" />
    <glyph glyph-name="logicalnot" unicode="&#xac;" horiz-adv-x="532" 
d="M483 220h-106l31 174h-342l17 98h448z" />
    <glyph glyph-name="uni00AD" unicode="&#xad;" horiz-adv-x="364" 
d="M318 238h-280l17 98h280z" />
    <glyph glyph-name="registered" unicode="&#xae;" horiz-adv-x="593" 
d="M333 200q-122 0 -196 72t-74 189t74 189t196 72t195.5 -72t73.5 -189t-73.5 -189t-195.5 -72zM333 247q99 0 157.5 58.5t58.5 155.5t-58.5 155.5t-157.5 58.5q-100 0 -158.5 -58.5t-58.5 -155.5t58.5 -155.5t158.5 -58.5zM442 516q0 -49 -46 -63q42 -11 42 -55v-41
q0 -14 4 -26h-57q-5 12 -5 26v36q0 40 -45 40h-41v-102h-59v260h121q41 0 63.5 -20t22.5 -55zM383 512q0 34 -42 34h-47v-69h47q23 0 32.5 8t9.5 27z" />
    <glyph glyph-name="macron" unicode="&#xaf;" horiz-adv-x="500" 
d="M463 624h-298l14 73h298z" />
    <glyph glyph-name="degree" unicode="&#xb0;" horiz-adv-x="341" 
d="M226 426q-70 0 -112 42.5t-42 105.5t42 105.5t112 42.5t112 -42.5t42 -105.5t-42 -105.5t-112 -42.5zM226 495q35 0 55.5 22t20.5 57t-20.5 56.5t-55.5 21.5t-55.5 -21.5t-20.5 -56.5t20.5 -57t55.5 -22z" />
    <glyph glyph-name="plusminus" unicode="&#xb1;" horiz-adv-x="532" 
d="M445 0h-448l17 98h448zM306 184h-106l26 149h-171l17 98h171l27 149h106l-27 -149h171l-17 -98h-171z" />
    <glyph glyph-name="twosuperior" unicode="&#xb2;" horiz-adv-x="364" 
d="M377 492h-309l6 38q11 70 41.5 106t99.5 60l65 23q64 22 64 75t-57 53q-67 0 -81 -76h-79q16 147 167 147q64 0 100.5 -30.5t36.5 -83.5q0 -55 -29 -89.5t-96 -57.5l-70 -24q-32 -11 -47.5 -27t-21.5 -43h224z" />
    <glyph glyph-name="threesuperior" unicode="&#xb3;" horiz-adv-x="378" 
d="M236 486q-68 0 -106.5 30.5t-38.5 92.5q0 8 2 24h79q0 -40 17.5 -58t54.5 -18q40 0 61 18.5t21 50.5q0 26 -14 37t-44 11h-46l11 63h37q84 0 84 61q0 24 -17.5 36.5t-48.5 12.5q-71 0 -83 -64h-80q15 135 172 135q65 0 104 -30t39 -78q0 -81 -86 -102q59 -18 59 -77
q0 -69 -45.5 -107t-131.5 -38z" />
    <glyph glyph-name="acute" unicode="&#xb4;" horiz-adv-x="500" 
d="M299 584h-99l116 152h139z" />
    <glyph glyph-name="mu" unicode="&#xb5;" 
d="M460 0h-123l13 75q-22 -41 -58.5 -63t-78.5 -22q-59 0 -78 33l-39 -219h-129l125 712h129l-55 -316q-3 -17 -3 -31q2 -74 74 -74q51 0 87 35t47 100l50 286h129z" />
    <glyph glyph-name="paragraph" unicode="&#xb6;" horiz-adv-x="590" 
d="M455 -196h-97l145 818h-129l-144 -818h-97l95 541q-76 2 -120 46t-44 113q0 94 60 151t158 57h333z" />
    <glyph glyph-name="periodcentered" unicode="&#xb7;" horiz-adv-x="223" 
d="M108 217q-33 0 -52.5 17t-19.5 42q0 36 24 58.5t66 22.5q32 0 51.5 -17t19.5 -42q0 -36 -23.5 -58.5t-65.5 -22.5z" />
    <glyph glyph-name="cedilla" unicode="&#xb8;" horiz-adv-x="500" 
d="M288 -99q0 -46 -34 -65t-104 -19l-79 6l9 49h69q54 0 54 33q0 22 -44 22h-27l5 29l55 55h48l-55 -55q103 0 103 -55z" />
    <glyph glyph-name="onesuperior" unicode="&#xb9;" horiz-adv-x="267" 
d="M253 492h-87l52 291q-27 -20 -85 -20h-17l11 66q93 4 129 83h71z" />
    <glyph glyph-name="ordmasculine" unicode="&#xba;" horiz-adv-x="511" 
d="M272 342q64 0 103 54.5t39 134.5q0 51 -24.5 78t-68.5 27q-64 0 -103 -54.5t-39 -134.5q0 -51 24.5 -78t68.5 -27zM264 256q-92 0 -145.5 49.5t-53.5 134.5q0 129 72 205.5t192 76.5q92 0 145.5 -49.5t53.5 -134.5q0 -129 -72 -205.5t-192 -76.5z" />
    <glyph glyph-name="guillemotright" unicode="&#xbb;" horiz-adv-x="478" 
d="M213 238l-188 -147l21 119l102 81l-74 81l21 111l135 -147zM419 238l-188 -147l21 119l102 81l-74 81l21 111l135 -147z" />
    <glyph glyph-name="onequarter" unicode="&#xbc;" horiz-adv-x="755" 
d="M218 292h-87l52 291q-27 -20 -85 -20h-17l11 66q93 4 129 83h71zM151 0h-79l507 712h79zM627 0h-84l17 101h-200l14 78l231 241h96l-45 -252h56l-12 -67h-56zM572 168l29 161l-153 -161h124z" />
    <glyph glyph-name="onehalf" unicode="&#xbd;" horiz-adv-x="772" 
d="M218 292h-87l52 291q-27 -20 -85 -20h-17l11 66q93 4 129 83h71zM151 0h-79l507 712h79zM699 0h-309l6 38q11 70 41.5 106t99.5 60l65 23q64 22 64 75t-57 53q-67 0 -81 -76h-79q16 147 167 147q64 0 100.5 -30.5t36.5 -83.5q0 -55 -29 -89.5t-96 -57.5l-70 -24
q-32 -11 -47.5 -27t-21.5 -43h224z" />
    <glyph glyph-name="threequarters" unicode="&#xbe;" horiz-adv-x="844" 
d="M201 286q-68 0 -106.5 30.5t-38.5 92.5q0 8 2 24h79q0 -40 17.5 -58t54.5 -18q40 0 61 18.5t21 50.5q0 26 -14 37t-44 11h-46l11 63h37q84 0 84 61q0 24 -17.5 36.5t-48.5 12.5q-71 0 -83 -64h-80q15 135 172 135q65 0 104 -30t39 -78q0 -81 -86 -102q59 -18 59 -77
q0 -69 -45.5 -107t-131.5 -38zM239 0h-78l507 712h78zM715 0h-83l17 101h-200l14 78l230 241h96l-45 -252h57l-12 -67h-56zM660 168l29 161l-152 -161h123z" />
    <glyph glyph-name="questiondown" unicode="&#xbf;" horiz-adv-x="543" 
d="M203 -206q-104 0 -164.5 49t-60.5 126q0 57 23.5 96.5t58 61t70 39t64.5 42.5t35 60l6 32h109l-6 -32q-10 -54 -37.5 -91t-58 -55.5t-60 -35t-49 -42t-19.5 -65.5q0 -37 28.5 -58.5t71.5 -21.5q112 0 136 124h125q-12 -109 -81.5 -169t-190.5 -60zM307 384
q-32 0 -51.5 17t-19.5 42q0 36 23.5 58.5t65.5 22.5q33 0 52.5 -17t19.5 -42q0 -37 -23.5 -59t-66.5 -22z" />
    <glyph glyph-name="Agrave" unicode="&#xc0;" horiz-adv-x="712" 
d="M660 0h-133l-28 148h-310l-81 -148h-146l390 712h168zM483 253l-61 335l-181 -335h242zM497 774h-98l-101 152h132z" />
    <glyph glyph-name="Aacute" unicode="&#xc1;" horiz-adv-x="712" 
d="M660 0h-133l-28 148h-310l-81 -148h-146l390 712h168zM483 253l-61 335l-181 -335h242zM497 774h-99l117 152h138z" />
    <glyph glyph-name="Acircumflex" unicode="&#xc2;" horiz-adv-x="712" 
d="M660 0h-133l-28 148h-310l-81 -148h-146l390 712h168zM483 253l-61 335l-181 -335h242zM607 774h-91l-49 82l-77 -82h-101l135 152h100z" />
    <glyph glyph-name="Atilde" unicode="&#xc3;" horiz-adv-x="712" 
d="M660 0h-133l-28 148h-310l-81 -148h-146l390 712h168zM483 253l-61 335l-181 -335h242zM519 782q-33 0 -68 29t-50 29q-36 0 -45 -58h-66q13 137 113 137q32 0 67.5 -29.5t50.5 -29.5q35 0 45 59h66q-15 -137 -113 -137z" />
    <glyph glyph-name="Adieresis" unicode="&#xc4;" horiz-adv-x="712" 
d="M660 0h-133l-28 148h-310l-81 -148h-146l390 712h168zM483 253l-61 335l-181 -335h242zM361 793q-27 0 -43 13.5t-16 34.5q0 30 19 48t54 18q26 0 42 -13.5t16 -34.5q0 -29 -19 -47.5t-53 -18.5zM546 793q-26 0 -42 13.5t-16 34.5q0 30 18.5 48t53.5 18q26 0 42 -13.5
t16 -34.5q0 -30 -18.5 -48t-53.5 -18z" />
    <glyph glyph-name="Aring" unicode="&#xc5;" horiz-adv-x="712" 
d="M660 0h-133l-28 148h-310l-81 -148h-146l390 712h34q-32 12 -50.5 37t-18.5 58q0 63 40.5 101t112.5 38q55 0 89.5 -29t34.5 -75q0 -48 -24 -82t-68 -48h18zM483 253l-61 335l-181 -335h242zM446 765q32 0 52 19.5t20 51.5q0 22 -14.5 35t-38.5 13q-32 0 -52 -19.5
t-20 -51.5q0 -22 14 -35t39 -13z" />
    <glyph glyph-name="AE" unicode="&#xc6;" horiz-adv-x="1058" 
d="M984 0h-519l26 148h-283l-100 -148h-146l470 712h677l-20 -111h-383l-32 -186h351l-19 -104h-351l-35 -200h383zM509 253l61 348h-63l-232 -348h234z" />
    <glyph glyph-name="Ccedilla" unicode="&#xc7;" horiz-adv-x="736" 
d="M418 -99q0 -46 -34 -65t-103 -19l-79 6l9 49h69q28 0 40.5 7.5t12.5 25.5q0 22 -44 22h-27l5 29l36 36q-125 11 -194.5 88t-69.5 198q0 196 110 320t299 124q125 0 209.5 -64.5t84.5 -177.5q0 -8 -2 -28h-127q0 70 -47 114.5t-127 44.5q-124 0 -194 -93t-70 -230
q0 -87 49 -137t132 -50q85 0 143 44.5t80 120.5h129q-18 -128 -114 -201.5t-245 -74.5l-34 -34q103 0 103 -55z" />
    <glyph glyph-name="Egrave" unicode="&#xc8;" horiz-adv-x="603" 
d="M529 0h-519l125 712h519l-20 -111h-383l-32 -186h351l-19 -104h-351l-35 -200h383zM455 774h-98l-101 152h132z" />
    <glyph glyph-name="Eacute" unicode="&#xc9;" horiz-adv-x="603" 
d="M529 0h-519l125 712h519l-20 -111h-383l-32 -186h351l-19 -104h-351l-35 -200h383zM456 774h-100l117 152h139z" />
    <glyph glyph-name="Ecircumflex" unicode="&#xca;" horiz-adv-x="603" 
d="M529 0h-519l125 712h519l-20 -111h-383l-32 -186h351l-19 -104h-351l-35 -200h383zM565 774h-90l-50 82l-77 -82h-101l136 152h99z" />
    <glyph glyph-name="Edieresis" unicode="&#xcb;" horiz-adv-x="603" 
d="M529 0h-519l125 712h519l-20 -111h-383l-32 -186h351l-19 -104h-351l-35 -200h383zM319 793q-26 0 -42 13.5t-16 34.5q0 30 18.5 48t53.5 18q26 0 42 -13.5t16 -34.5q0 -30 -18.5 -48t-53.5 -18zM505 793q-27 0 -43 13.5t-16 34.5q0 30 19 48t53 18q27 0 43 -13.5
t16 -34.5q0 -29 -19 -47.5t-53 -18.5z" />
    <glyph glyph-name="Igrave" unicode="&#xcc;" horiz-adv-x="246" 
d="M146 0h-136l125 712h136zM264 774h-98l-101 152h132z" />
    <glyph glyph-name="Iacute" unicode="&#xcd;" horiz-adv-x="246" 
d="M146 0h-136l125 712h136zM264 774h-99l116 152h139z" />
    <glyph glyph-name="Icircumflex" unicode="&#xce;" horiz-adv-x="246" 
d="M146 0h-136l125 712h136zM374 774h-91l-49 82l-77 -82h-101l135 152h100z" />
    <glyph glyph-name="Idieresis" unicode="&#xcf;" horiz-adv-x="246" 
d="M146 0h-136l125 712h136zM128 793q-27 0 -43 13.5t-16 34.5q0 30 19 48t53 18q27 0 43 -13.5t16 -34.5q0 -29 -19 -47.5t-53 -18.5zM313 793q-26 0 -42 13.5t-16 34.5q0 30 18.5 48t53.5 18q26 0 42 -13.5t16 -34.5q0 -30 -18.5 -48t-53.5 -18z" />
    <glyph glyph-name="Eth" unicode="&#xd0;" horiz-adv-x="739" 
d="M734 434q0 -200 -104.5 -317t-303.5 -117h-296l57 326h-75l13 74h74l56 312h270q150 0 229.5 -72.5t79.5 -205.5zM598 424q0 87 -46 134t-129 47h-151l-36 -205h174l-13 -74h-174l-39 -219h157q123 0 190 90t67 227z" />
    <glyph glyph-name="Ntilde" unicode="&#xd1;" horiz-adv-x="719" 
d="M619 0h-146l-241 528l-93 -528h-129l125 712h146l240 -528l93 528h130zM523 782q-26 0 -48 14.5t-39 29t-31 14.5q-37 0 -46 -58h-65q13 137 112 137q26 0 48 -14.5t39 -29.5t31 -15q35 0 46 59h65q-13 -137 -112 -137z" />
    <glyph glyph-name="Ograve" unicode="&#xd2;" horiz-adv-x="761" 
d="M346 -10q-144 0 -225.5 78.5t-81.5 209.5q0 196 110 320t299 124q143 0 225.5 -78.5t82.5 -209.5q0 -198 -108 -321t-302 -123zM356 101q124 0 194 93t70 230q0 87 -49 137t-132 50q-124 0 -194 -93t-70 -230q0 -87 49 -137t132 -50zM521 774h-98l-101 152h133z" />
    <glyph glyph-name="Oacute" unicode="&#xd3;" horiz-adv-x="761" 
d="M346 -10q-144 0 -225.5 78.5t-81.5 209.5q0 196 110 320t299 124q143 0 225.5 -78.5t82.5 -209.5q0 -198 -108 -321t-302 -123zM356 101q124 0 194 93t70 230q0 87 -49 137t-132 50q-124 0 -194 -93t-70 -230q0 -87 49 -137t132 -50zM522 774h-99l116 152h139z" />
    <glyph glyph-name="Ocircumflex" unicode="&#xd4;" horiz-adv-x="761" 
d="M346 -10q-144 0 -225.5 78.5t-81.5 209.5q0 196 110 320t299 124q143 0 225.5 -78.5t82.5 -209.5q0 -198 -108 -321t-302 -123zM356 101q124 0 194 93t70 230q0 87 -49 137t-132 50q-124 0 -194 -93t-70 -230q0 -87 49 -137t132 -50zM631 774h-90l-50 82l-77 -82h-101
l136 152h99z" />
    <glyph glyph-name="Otilde" unicode="&#xd5;" horiz-adv-x="761" 
d="M346 -10q-144 0 -225.5 78.5t-81.5 209.5q0 196 110 320t299 124q143 0 225.5 -78.5t82.5 -209.5q0 -198 -108 -321t-302 -123zM356 101q124 0 194 93t70 230q0 87 -49 137t-132 50q-124 0 -194 -93t-70 -230q0 -87 49 -137t132 -50zM544 782q-26 0 -48 14.5t-39 29
t-31 14.5q-35 0 -46 -58h-65q13 137 112 137q26 0 48 -14.5t39 -29.5t31 -15q36 0 46 59h65q-13 -137 -112 -137z" />
    <glyph glyph-name="Odieresis" unicode="&#xd6;" horiz-adv-x="761" 
d="M346 -10q-144 0 -225.5 78.5t-81.5 209.5q0 196 110 320t299 124q143 0 225.5 -78.5t82.5 -209.5q0 -198 -108 -321t-302 -123zM356 101q124 0 194 93t70 230q0 87 -49 137t-132 50q-124 0 -194 -93t-70 -230q0 -87 49 -137t132 -50zM385 793q-26 0 -42 13.5t-16 34.5
q0 30 18.5 48t53.5 18q26 0 42 -13.5t16 -34.5q0 -30 -18.5 -48t-53.5 -18zM571 793q-27 0 -43 13.5t-16 34.5q0 30 19 48t54 18q26 0 42 -13.5t16 -34.5q0 -29 -19 -47.5t-53 -18.5z" />
    <glyph glyph-name="multiply" unicode="&#xd7;" horiz-adv-x="532" 
d="M399 132l-128 155l-183 -155l-56 69l182 155l-128 155l81 69l128 -155l183 155l56 -69l-182 -155l128 -155z" />
    <glyph glyph-name="Oslash" unicode="&#xd8;" horiz-adv-x="761" 
d="M20 -10l-33 39l96 84q-44 68 -44 165q0 196 110 320t299 124q149 0 232 -85l96 85l33 -39l-97 -86q44 -68 44 -163q0 -198 -108 -321t-302 -123q-148 0 -231 83zM175 288q0 -48 14 -82l391 344q-48 61 -141 61q-124 0 -194 -93t-70 -230zM356 101q124 0 194 93t70 230
q0 44 -14 81l-391 -344q48 -60 141 -60z" />
    <glyph glyph-name="Ugrave" unicode="&#xd9;" horiz-adv-x="699" 
d="M315 -10q-133 0 -203.5 54.5t-70.5 160.5q0 31 6 64l78 443h136l-76 -430q-5 -32 -5 -53q0 -128 144 -128q86 0 133.5 41.5t65.5 139.5l75 430h136l-78 -443q-27 -151 -106 -215t-235 -64zM490 774h-98l-101 152h132z" />
    <glyph glyph-name="Uacute" unicode="&#xda;" horiz-adv-x="699" 
d="M315 -10q-133 0 -203.5 54.5t-70.5 160.5q0 31 6 64l78 443h136l-76 -430q-5 -32 -5 -53q0 -128 144 -128q86 0 133.5 41.5t65.5 139.5l75 430h136l-78 -443q-27 -151 -106 -215t-235 -64zM491 774h-100l117 152h139z" />
    <glyph glyph-name="Ucircumflex" unicode="&#xdb;" horiz-adv-x="699" 
d="M315 -10q-133 0 -203.5 54.5t-70.5 160.5q0 31 6 64l78 443h136l-76 -430q-5 -32 -5 -53q0 -128 144 -128q86 0 133.5 41.5t65.5 139.5l75 430h136l-78 -443q-27 -151 -106 -215t-235 -64zM600 774h-90l-50 82l-77 -82h-101l136 152h99z" />
    <glyph glyph-name="Udieresis" unicode="&#xdc;" horiz-adv-x="699" 
d="M315 -10q-133 0 -203.5 54.5t-70.5 160.5q0 31 6 64l78 443h136l-76 -430q-5 -32 -5 -53q0 -128 144 -128q86 0 133.5 41.5t65.5 139.5l75 430h136l-78 -443q-27 -151 -106 -215t-235 -64zM354 793q-26 0 -42 13.5t-16 34.5q0 30 18.5 48t53.5 18q26 0 42 -13.5t16 -34.5
q0 -30 -18.5 -48t-53.5 -18zM540 793q-27 0 -43 13.5t-16 34.5q0 30 19 48t53 18q27 0 43 -13.5t16 -34.5q0 -29 -19 -47.5t-53 -18.5z" />
    <glyph glyph-name="Yacute" unicode="&#xdd;" horiz-adv-x="692" 
d="M233 0l50 288l-196 424h150l129 -297l235 297h164l-346 -424l-50 -288h-136zM487 774h-99l117 152h138z" />
    <glyph glyph-name="Thorn" unicode="&#xde;" horiz-adv-x="649" 
d="M641 393q0 -130 -77 -202.5t-221 -72.5h-177l-20 -118h-136l125 712h136l-21 -118h150q111 0 176 -53t65 -148zM505 382q0 110 -142 110h-131l-48 -272h156q81 0 123 41t42 121z" />
    <glyph glyph-name="germandbls" unicode="&#xdf;" horiz-adv-x="589" 
d="M320 -6q-46 0 -100 6l15 91l70 -2q53 0 85 29.5t32 80.5q0 33 -29 81t-29 73q0 20 12.5 40.5t27 36.5t27 44t12.5 62q0 40 -26.5 64t-69.5 24q-52 0 -84.5 -31t-41.5 -84l-90 -509h-129l89 509q17 95 81 154t178 59q101 0 155 -48t54 -124q0 -37 -12.5 -67.5t-27 -47
t-27 -37t-12.5 -39.5q0 -18 18 -43t35.5 -55.5t17.5 -61.5q0 -94 -62.5 -149.5t-168.5 -55.5z" />
    <glyph glyph-name="agrave" unicode="&#xe0;" 
d="M176 -10q-78 0 -123.5 38t-45.5 103q0 151 193 166l121 11q73 5 73 58q0 32 -23.5 50t-63.5 18q-92 0 -107 -81h-128q16 173 245 173q94 0 150 -38.5t56 -110.5q0 -21 -4 -38l-36 -207q-12 -64 -12 -99q0 -21 5 -33h-117q-12 17 -12 43q0 11 3 28q-61 -81 -174 -81z
M219 78q59 0 99 36.5t49 93.5l7 42q-13 -15 -67 -20l-77 -7q-94 -7 -94 -77q0 -32 22 -50t61 -18zM387 584h-98l-101 152h132z" />
    <glyph glyph-name="aacute" unicode="&#xe1;" 
d="M176 -10q-78 0 -123.5 38t-45.5 103q0 151 193 166l121 11q73 5 73 58q0 32 -23.5 50t-63.5 18q-92 0 -107 -81h-128q16 173 245 173q94 0 150 -38.5t56 -110.5q0 -21 -4 -38l-36 -207q-12 -64 -12 -99q0 -21 5 -33h-117q-12 17 -12 43q0 11 3 28q-61 -81 -174 -81z
M219 78q59 0 99 36.5t49 93.5l7 42q-13 -15 -67 -20l-77 -7q-94 -7 -94 -77q0 -32 22 -50t61 -18zM387 584h-99l117 152h138z" />
    <glyph glyph-name="acircumflex" unicode="&#xe2;" 
d="M176 -10q-78 0 -123.5 38t-45.5 103q0 151 193 166l121 11q73 5 73 58q0 32 -23.5 50t-63.5 18q-92 0 -107 -81h-128q16 173 245 173q94 0 150 -38.5t56 -110.5q0 -21 -4 -38l-36 -207q-12 -64 -12 -99q0 -21 5 -33h-117q-12 17 -12 43q0 11 3 28q-61 -81 -174 -81z
M219 78q59 0 99 36.5t49 93.5l7 42q-13 -15 -67 -20l-77 -7q-94 -7 -94 -77q0 -32 22 -50t61 -18zM497 584h-91l-49 82l-77 -82h-101l135 152h100z" />
    <glyph glyph-name="atilde" unicode="&#xe3;" 
d="M176 -10q-78 0 -123.5 38t-45.5 103q0 151 193 166l121 11q73 5 73 58q0 32 -23.5 50t-63.5 18q-92 0 -107 -81h-128q16 173 245 173q94 0 150 -38.5t56 -110.5q0 -21 -4 -38l-36 -207q-12 -64 -12 -99q0 -21 5 -33h-117q-12 17 -12 43q0 11 3 28q-61 -81 -174 -81z
M219 78q59 0 99 36.5t49 93.5l7 42q-13 -15 -67 -20l-77 -7q-94 -7 -94 -77q0 -32 22 -50t61 -18zM409 592q-32 0 -67.5 29t-50.5 29q-36 0 -45 -58h-66q13 137 113 137q32 0 67.5 -29.5t50.5 -29.5q35 0 45 59h66q-15 -137 -113 -137z" />
    <glyph glyph-name="adieresis" unicode="&#xe4;" 
d="M176 -10q-78 0 -123.5 38t-45.5 103q0 151 193 166l121 11q73 5 73 58q0 32 -23.5 50t-63.5 18q-92 0 -107 -81h-128q16 173 245 173q94 0 150 -38.5t56 -110.5q0 -21 -4 -38l-36 -207q-12 -64 -12 -99q0 -21 5 -33h-117q-12 17 -12 43q0 11 3 28q-61 -81 -174 -81z
M219 78q59 0 99 36.5t49 93.5l7 42q-13 -15 -67 -20l-77 -7q-94 -7 -94 -77q0 -32 22 -50t61 -18zM251 603q-27 0 -43 13.5t-16 34.5q0 30 19 48t54 18q26 0 42 -13.5t16 -34.5q0 -29 -19 -47.5t-53 -18.5zM436 603q-26 0 -42 13.5t-16 34.5q0 30 18.5 48t53.5 18
q26 0 42 -13.5t16 -34.5q0 -30 -18.5 -48t-53.5 -18z" />
    <glyph glyph-name="aring" unicode="&#xe5;" 
d="M176 -10q-78 0 -123.5 38t-45.5 103q0 151 193 166l121 11q73 5 73 58q0 32 -23.5 50t-63.5 18q-92 0 -107 -81h-128q16 173 245 173q94 0 150 -38.5t56 -110.5q0 -21 -4 -38l-36 -207q-12 -64 -12 -99q0 -21 5 -33h-117q-12 17 -12 43q0 11 3 28q-61 -81 -174 -81z
M219 78q59 0 99 36.5t49 93.5l7 42q-13 -15 -67 -20l-77 -7q-94 -7 -94 -77q0 -32 22 -50t61 -18zM341 564q-55 0 -89.5 29t-34.5 75q0 62 40.5 100.5t112.5 38.5q55 0 89.5 -29t34.5 -75q0 -63 -40.5 -101t-112.5 -38zM346 626q32 0 52 19.5t20 51.5q0 22 -14 35t-39 13
q-32 0 -52 -19.5t-20 -51.5q0 -22 14.5 -35t38.5 -13z" />
    <glyph glyph-name="ae" unicode="&#xe6;" horiz-adv-x="916" 
d="M602 -10q-157 0 -193 130q-35 -64 -90 -97t-143 -33q-78 0 -123.5 38t-45.5 103q0 151 193 166l121 11q73 5 73 58q0 32 -23.5 50t-63.5 18q-92 0 -107 -81h-128q16 173 245 173q136 0 163 -86q69 86 190 86q106 0 164.5 -60.5t58.5 -151.5q0 -44 -12 -83h-381
q-2 -24 -2 -35q0 -57 29 -87.5t83 -30.5q95 0 133 85h120q-25 -81 -91 -127t-170 -46zM219 78q59 0 99 36.5t49 93.5l7 42q-13 -15 -67 -20l-77 -7q-94 -7 -94 -77q0 -32 22 -50t61 -18zM662 438q-54 0 -93 -31.5t-55 -91.5h253q0 123 -105 123z" />
    <glyph glyph-name="ccedilla" unicode="&#xe7;" horiz-adv-x="546" 
d="M324 -99q0 -46 -34 -65t-104 -19l-79 6l9 49h69q54 0 54 33q0 22 -44 22h-27l5 29l36 37q-87 10 -136.5 65.5t-49.5 143.5q0 149 80.5 236.5t219.5 87.5q104 0 161.5 -51.5t57.5 -124.5q0 -14 -3 -30h-119q0 45 -27 76.5t-79 31.5q-75 0 -118.5 -62t-43.5 -156
q0 -58 28.5 -90t77.5 -32q50 0 88 28.5t55 83.5h120q-17 -95 -83 -152t-183 -58l-34 -34q103 0 103 -55z" />
    <glyph glyph-name="egrave" unicode="&#xe8;" horiz-adv-x="567" 
d="M252 -10q-108 0 -168.5 57t-60.5 155q0 145 81 234.5t216 89.5q107 0 165.5 -60.5t58.5 -151.5q0 -44 -12 -83h-381q-2 -12 -2 -35q0 -57 29 -87.5t82 -30.5q96 0 134 85h119q-25 -82 -90.5 -127.5t-170.5 -45.5zM313 438q-54 0 -93 -31.5t-55 -91.5h253q0 123 -105 123z
M390 584h-98l-101 152h133z" />
    <glyph glyph-name="eacute" unicode="&#xe9;" horiz-adv-x="567" 
d="M252 -10q-108 0 -168.5 57t-60.5 155q0 145 81 234.5t216 89.5q107 0 165.5 -60.5t58.5 -151.5q0 -44 -12 -83h-381q-2 -12 -2 -35q0 -57 29 -87.5t82 -30.5q96 0 134 85h119q-25 -82 -90.5 -127.5t-170.5 -45.5zM313 438q-54 0 -93 -31.5t-55 -91.5h253q0 123 -105 123z
M391 584h-99l116 152h139z" />
    <glyph glyph-name="ecircumflex" unicode="&#xea;" horiz-adv-x="567" 
d="M252 -10q-108 0 -168.5 57t-60.5 155q0 145 81 234.5t216 89.5q107 0 165.5 -60.5t58.5 -151.5q0 -44 -12 -83h-381q-2 -12 -2 -35q0 -57 29 -87.5t82 -30.5q96 0 134 85h119q-25 -82 -90.5 -127.5t-170.5 -45.5zM313 438q-54 0 -93 -31.5t-55 -91.5h253q0 123 -105 123z
M500 584h-90l-50 82l-77 -82h-101l136 152h99z" />
    <glyph glyph-name="edieresis" unicode="&#xeb;" horiz-adv-x="567" 
d="M252 -10q-108 0 -168.5 57t-60.5 155q0 145 81 234.5t216 89.5q107 0 165.5 -60.5t58.5 -151.5q0 -44 -12 -83h-381q-2 -12 -2 -35q0 -57 29 -87.5t82 -30.5q96 0 134 85h119q-25 -82 -90.5 -127.5t-170.5 -45.5zM313 438q-54 0 -93 -31.5t-55 -91.5h253q0 123 -105 123z
M254 603q-26 0 -42 13.5t-16 34.5q0 30 18.5 48t53.5 18q26 0 42 -13.5t16 -34.5q0 -30 -18.5 -48t-53.5 -18zM440 603q-27 0 -43 13.5t-16 34.5q0 30 19 48t54 18q26 0 42 -13.5t16 -34.5q0 -29 -19 -47.5t-53 -18.5z" />
    <glyph glyph-name="igrave" unicode="&#xec;" horiz-adv-x="223" 
d="M131 0h-129l90 516h129zM218 584h-98l-100 152h132z" />
    <glyph glyph-name="iacute" unicode="&#xed;" horiz-adv-x="223" 
d="M131 0h-129l90 516h129zM219 584h-99l116 152h139z" />
    <glyph glyph-name="icircumflex" unicode="&#xee;" horiz-adv-x="223" 
d="M131 0h-129l90 516h129zM328 584h-90l-50 82l-77 -82h-101l136 152h99z" />
    <glyph glyph-name="idieresis" unicode="&#xef;" horiz-adv-x="223" 
d="M131 0h-129l90 516h129zM82 603q-26 0 -42 13.5t-16 34.5q0 30 19 48t53 18q27 0 43 -13.5t16 -34.5q0 -30 -19 -48t-54 -18zM268 603q-26 0 -42 13.5t-16 34.5q0 30 18.5 48t53.5 18q26 0 42 -13.5t16 -34.5q0 -29 -19 -47.5t-53 -18.5z" />
    <glyph glyph-name="eth" unicode="&#xf0;" horiz-adv-x="579" 
d="M252 -10q-108 0 -168.5 57.5t-60.5 149.5q0 133 75.5 216t192.5 83q99 0 140 -67q-19 72 -78 152l-174 -46l13 67l119 32q-31 38 -71 78h125l46 -51l155 42l-12 -68l-102 -27q104 -149 104 -299q0 -142 -81 -230.5t-223 -88.5zM262 82q74 0 119.5 60.5t45.5 147.5
q0 53 -29 83.5t-81 30.5q-74 0 -119.5 -60.5t-45.5 -147.5q0 -53 29 -83.5t81 -30.5z" />
    <glyph glyph-name="ntilde" unicode="&#xf1;" 
d="M460 0h-129l55 316q3 17 3 31q-2 74 -74 74q-51 0 -87 -35.5t-47 -99.5l-50 -286h-129l90 516h123l-13 -75q59 85 161 85q76 0 118.5 -37t42.5 -105q0 -13 -4 -43zM405 592q-33 0 -68 29t-50 29q-36 0 -45 -58h-66q13 137 113 137q32 0 67.5 -29.5t50.5 -29.5q35 0 45 59
h66q-15 -137 -113 -137z" />
    <glyph glyph-name="ograve" unicode="&#xf2;" horiz-adv-x="579" 
d="M262 88q73 0 119 63t46 155q0 59 -29 90.5t-81 31.5q-73 0 -119 -63t-46 -155q0 -59 29 -90.5t81 -31.5zM252 -10q-106 0 -167.5 57t-61.5 155q0 148 83 236t220 88q107 0 168.5 -57t61.5 -155q0 -149 -83 -236.5t-221 -87.5zM396 584h-98l-101 152h133z" />
    <glyph glyph-name="oacute" unicode="&#xf3;" horiz-adv-x="579" 
d="M262 88q73 0 119 63t46 155q0 59 -29 90.5t-81 31.5q-73 0 -119 -63t-46 -155q0 -59 29 -90.5t81 -31.5zM252 -10q-106 0 -167.5 57t-61.5 155q0 148 83 236t220 88q107 0 168.5 -57t61.5 -155q0 -149 -83 -236.5t-221 -87.5zM397 584h-99l116 152h139z" />
    <glyph glyph-name="ocircumflex" unicode="&#xf4;" horiz-adv-x="579" 
d="M262 88q73 0 119 63t46 155q0 59 -29 90.5t-81 31.5q-73 0 -119 -63t-46 -155q0 -59 29 -90.5t81 -31.5zM252 -10q-106 0 -167.5 57t-61.5 155q0 148 83 236t220 88q107 0 168.5 -57t61.5 -155q0 -149 -83 -236.5t-221 -87.5zM506 584h-90l-50 82l-77 -82h-101l136 152
h99z" />
    <glyph glyph-name="otilde" unicode="&#xf5;" horiz-adv-x="579" 
d="M262 88q73 0 119 63t46 155q0 59 -29 90.5t-81 31.5q-73 0 -119 -63t-46 -155q0 -59 29 -90.5t81 -31.5zM252 -10q-106 0 -167.5 57t-61.5 155q0 148 83 236t220 88q107 0 168.5 -57t61.5 -155q0 -149 -83 -236.5t-221 -87.5zM419 592q-26 0 -48 14.5t-39 29t-31 14.5
q-35 0 -46 -58h-65q13 137 112 137q26 0 48 -14.5t39 -29.5t31 -15q36 0 46 59h65q-13 -137 -112 -137z" />
    <glyph glyph-name="odieresis" unicode="&#xf6;" horiz-adv-x="579" 
d="M262 88q73 0 119 63t46 155q0 59 -29 90.5t-81 31.5q-73 0 -119 -63t-46 -155q0 -59 29 -90.5t81 -31.5zM252 -10q-106 0 -167.5 57t-61.5 155q0 148 83 236t220 88q107 0 168.5 -57t61.5 -155q0 -149 -83 -236.5t-221 -87.5zM260 603q-26 0 -42 13.5t-16 34.5
q0 30 18.5 48t53.5 18q26 0 42 -13.5t16 -34.5q0 -30 -18.5 -48t-53.5 -18zM446 603q-27 0 -43 13.5t-16 34.5q0 30 19 48t54 18q26 0 42 -13.5t16 -34.5q0 -29 -19 -47.5t-53 -18.5z" />
    <glyph glyph-name="divide" unicode="&#xf7;" horiz-adv-x="532" 
d="M243 112q-26 0 -42 13.5t-16 34.5q0 29 19 47t53 18q26 0 42 -13.5t16 -33.5q0 -29 -19 -47.5t-53 -18.5zM498 307h-448l17 98h448zM309 487q-26 0 -42 13.5t-16 33.5q0 29 19 47t53 18q26 0 42 -13.5t16 -33.5q0 -29 -19 -47t-53 -18z" />
    <glyph glyph-name="oslash" unicode="&#xf8;" horiz-adv-x="579" 
d="M15 -10l-29 34l68 59q-31 51 -31 119q0 148 83 236t220 88q108 0 170 -59l69 60l28 -35l-69 -60q32 -49 32 -118q0 -149 -83 -236.5t-221 -87.5q-108 0 -170 59zM262 88q73 0 119 63t46 155q0 16 -4 38l-249 -216q29 -40 88 -40zM152 210q0 -23 4 -39l248 216
q-29 41 -87 41q-73 0 -119 -63t-46 -155z" />
    <glyph glyph-name="ugrave" unicode="&#xf9;" 
d="M189 -10q-76 0 -118.5 37t-42.5 105q0 13 4 43l60 341h129l-55 -316q-3 -17 -3 -31q2 -74 74 -74q51 0 87 35t47 100l50 286h129l-90 -516h-123l13 75q-59 -85 -161 -85zM383 584h-98l-101 152h132z" />
    <glyph glyph-name="uacute" unicode="&#xfa;" 
d="M189 -10q-76 0 -118.5 37t-42.5 105q0 13 4 43l60 341h129l-55 -316q-3 -17 -3 -31q2 -74 74 -74q51 0 87 35t47 100l50 286h129l-90 -516h-123l13 75q-59 -85 -161 -85zM383 584h-99l117 152h138z" />
    <glyph glyph-name="ucircumflex" unicode="&#xfb;" 
d="M189 -10q-76 0 -118.5 37t-42.5 105q0 13 4 43l60 341h129l-55 -316q-3 -17 -3 -31q2 -74 74 -74q51 0 87 35t47 100l50 286h129l-90 -516h-123l13 75q-59 -85 -161 -85zM493 584h-91l-49 82l-77 -82h-101l135 152h100z" />
    <glyph glyph-name="udieresis" unicode="&#xfc;" 
d="M189 -10q-76 0 -118.5 37t-42.5 105q0 13 4 43l60 341h129l-55 -316q-3 -17 -3 -31q2 -74 74 -74q51 0 87 35t47 100l50 286h129l-90 -516h-123l13 75q-59 -85 -161 -85zM247 603q-27 0 -43 13.5t-16 34.5q0 30 19 48t54 18q26 0 42 -13.5t16 -34.5q0 -29 -19 -47.5
t-53 -18.5zM432 603q-26 0 -42 13.5t-16 34.5q0 30 18.5 48t53.5 18q26 0 42 -13.5t16 -34.5q0 -30 -18.5 -48t-53.5 -18z" />
    <glyph glyph-name="yacute" unicode="&#xfd;" 
d="M-26 -196l16 92h52q49 0 80 28t31 73q0 13 -3 26l-98 493h128l61 -416l207 416h142l-270 -493q-68 -124 -133.5 -171.5t-161.5 -47.5h-51zM383 584h-99l117 152h138z" />
    <glyph glyph-name="thorn" unicode="&#xfe;" horiz-adv-x="589" 
d="M298 -10q-118 0 -152 96l-50 -282h-129l160 908h129l-46 -265q54 79 159 79q94 0 145.5 -59t51.5 -153q0 -140 -72 -232t-196 -92zM277 88q72 0 116 62.5t44 155.5q0 59 -27.5 90.5t-77.5 31.5q-72 0 -116 -62.5t-44 -155.5q0 -59 27.5 -90.5t77.5 -31.5z" />
    <glyph glyph-name="ydieresis" unicode="&#xff;" 
d="M-26 -196l16 92h52q49 0 80 28t31 73q0 13 -3 26l-98 493h128l61 -416l207 416h142l-270 -493q-68 -124 -133.5 -171.5t-161.5 -47.5h-51zM247 603q-27 0 -43 13.5t-16 34.5q0 30 19 48t54 18q26 0 42 -13.5t16 -34.5q0 -29 -19 -47.5t-53 -18.5zM432 603q-26 0 -42 13.5
t-16 34.5q0 30 18.5 48t53.5 18q26 0 42 -13.5t16 -34.5q0 -30 -18.5 -48t-53.5 -18z" />
    <glyph glyph-name="dotlessi" unicode="&#x131;" horiz-adv-x="223" 
d="M131 0h-129l90 516h129z" />
    <glyph glyph-name="Lslash" unicode="&#x141;" horiz-adv-x="567" 
d="M421 413l-195 -67l-41 -235h341l-19 -111h-477l52 296l-80 -27l13 73l80 27l60 343h136l-52 -293l195 67z" />
    <glyph glyph-name="lslash" unicode="&#x142;" horiz-adv-x="263" 
d="M151 0h-129l52 296l-72 -24l13 73l72 24l60 343h129l-52 -297l72 25l-14 -73l-71 -24z" />
    <glyph glyph-name="OE" unicode="&#x152;" horiz-adv-x="1076" 
d="M1002 0h-654q-150 0 -229.5 72.5t-79.5 205.5q0 201 104.5 317.5t304.5 116.5h679l-20 -111h-383l-32 -186h351l-19 -104h-351l-35 -200h383zM175 288q0 -87 46 -134t129 -47h151l88 498h-156q-124 0 -191 -89.5t-67 -227.5z" />
    <glyph glyph-name="oe" unicode="&#x153;" horiz-adv-x="963" 
d="M649 -10q-148 0 -181 114q-70 -114 -216 -114q-106 0 -167.5 57t-61.5 155q0 148 83 236t220 88q70 0 116.5 -29.5t63.5 -84.5q67 114 211 114q106 0 164.5 -60.5t58.5 -151.5q0 -44 -12 -83h-381q-2 -24 -2 -35q0 -57 29 -87.5t83 -30.5q95 0 133 85h119
q-25 -81 -90.5 -127t-169.5 -46zM262 88q73 0 119 63t46 155q0 59 -29 90.5t-81 31.5q-73 0 -119 -63t-46 -155q0 -59 29 -90.5t81 -31.5zM709 438q-54 0 -93 -31.5t-55 -91.5h253q0 123 -105 123z" />
    <glyph glyph-name="Scaron" unicode="&#x160;" horiz-adv-x="642" 
d="M287 -10q-132 0 -199.5 52t-67.5 153q0 12 2 34h130q0 -137 150 -137q78 0 124 32.5t46 90.5q0 37 -26.5 57t-94.5 30l-89 13q-89 13 -131.5 54t-42.5 115q0 112 80.5 175t220.5 63q120 0 185 -54t65 -149q0 -17 -1 -26h-126q0 127 -138 127q-67 0 -108.5 -30.5
t-41.5 -86.5q0 -37 22 -54.5t82 -25.5l89 -13q191 -29 191 -178q0 -115 -82.5 -178.5t-238.5 -63.5zM459 774h-99l-83 152h90l50 -81l77 81h101z" />
    <glyph glyph-name="scaron" unicode="&#x161;" horiz-adv-x="523" 
d="M224 -10q-103 0 -159.5 40.5t-56.5 107.5q0 16 2 25h121q0 -88 106 -88q54 0 83.5 21t29.5 56q0 44 -70 54l-78 11q-71 10 -107 42.5t-36 94.5q0 83 66 127.5t174 44.5q86 0 144 -34t58 -107q0 -8 -2 -24h-121q0 40 -20.5 60t-70.5 20q-45 0 -72 -18.5t-27 -55.5
q0 -23 12.5 -33.5t41.5 -15.5l77 -11q80 -12 120 -46t40 -100q0 -79 -68 -125t-187 -46zM369 584h-99l-84 152h91l49 -81l78 81h100z" />
    <glyph glyph-name="Ydieresis" unicode="&#x178;" horiz-adv-x="692" 
d="M233 0l50 288l-196 424h150l129 -297l235 297h164l-346 -424l-50 -288h-136zM351 793q-27 0 -43 13.5t-16 34.5q0 30 19 48t54 18q26 0 42 -13.5t16 -34.5q0 -29 -19 -47.5t-53 -18.5zM536 793q-26 0 -42 13.5t-16 34.5q0 30 18.5 48t53.5 18q26 0 42 -13.5t16 -34.5
q0 -30 -18.5 -48t-53.5 -18z" />
    <glyph glyph-name="Zcaron" unicode="&#x17d;" horiz-adv-x="587" 
d="M508 0h-520l16 93l424 508h-324l19 111h500l-16 -93l-425 -508h345zM435 774h-99l-84 152h91l49 -81l78 81h100z" />
    <glyph glyph-name="zcaron" unicode="&#x17e;" horiz-adv-x="472" 
d="M403 0h-425l15 85l317 339h-247l15 92h405l-14 -85l-317 -339h267zM343 584h-99l-83 152h90l50 -81l77 81h101z" />
    <glyph glyph-name="florin" unicode="&#x192;" horiz-adv-x="532" 
d="M12 -201q-38 0 -91 5l15 86h67q59 0 80 60l132 376h-139l16 92h155l51 143q29 83 74.5 119.5t126.5 36.5q38 0 93 -5l-15 -86h-69q-58 0 -79 -60l-53 -148h140l-16 -92h-156l-131 -371q-29 -83 -74.5 -119.5t-126.5 -36.5z" />
    <glyph glyph-name="circumflex" unicode="&#x2c6;" horiz-adv-x="500" 
d="M467 584h-91l-49 82l-77 -82h-101l135 152h100z" />
    <glyph glyph-name="caron" unicode="&#x2c7;" horiz-adv-x="500" 
d="M357 584h-99l-83 152h90l50 -81l77 81h101z" />
    <glyph glyph-name="breve" unicode="&#x2d8;" horiz-adv-x="500" 
d="M316 574q-135 0 -135 117q0 24 4 45h60q0 -45 17 -64t56 -19q38 0 61 19.5t35 63.5h69q-15 -84 -53 -123t-114 -39z" />
    <glyph glyph-name="dotaccent" unicode="&#x2d9;" horiz-adv-x="500" 
d="M313 603q-26 0 -42 13.5t-16 34.5q0 30 19 48t53 18q27 0 43 -13.5t16 -34.5q0 -30 -19 -48t-54 -18z" />
    <glyph glyph-name="ring" unicode="&#x2da;" horiz-adv-x="500" 
d="M311 564q-55 0 -89.5 29t-34.5 75q0 62 40.5 100.5t112.5 38.5q55 0 89.5 -29t34.5 -75q0 -63 -40.5 -101t-112.5 -38zM316 626q32 0 52 19.5t20 51.5q0 22 -14 35t-39 13q-32 0 -52 -19.5t-20 -51.5q0 -22 14.5 -35t38.5 -13z" />
    <glyph glyph-name="ogonek" unicode="&#x2db;" horiz-adv-x="500" 
d="M265 -177l-63 -6q-109 0 -109 67q0 36 33.5 63t107.5 53h63q-67 -35 -93 -59t-26 -46q0 -23 37 -23h59z" />
    <glyph glyph-name="tilde" unicode="&#x2dc;" horiz-adv-x="500" 
d="M379 592q-33 0 -68 29t-50 29q-36 0 -45 -58h-66q13 137 113 137q32 0 67.5 -29.5t50.5 -29.5q35 0 45 59h66q-15 -137 -113 -137z" />
    <glyph glyph-name="hungarumlaut" unicode="&#x2dd;" horiz-adv-x="500" 
d="M196 584h-99l116 152h139zM402 584h-99l116 152h139z" />
    <glyph glyph-name="pi" unicode="&#x3c0;" horiz-adv-x="640" 
d="M504 0h-129l74 424h-199l-75 -424h-129l74 424h-81l16 92h620l-16 -92h-81z" />
    <glyph glyph-name="endash" unicode="&#x2013;" horiz-adv-x="534" 
d="M488 238h-450l17 98h450z" />
    <glyph glyph-name="emdash" unicode="&#x2014;" horiz-adv-x="874" 
d="M828 238h-790l17 98h790z" />
    <glyph glyph-name="quoteleft" unicode="&#x2018;" horiz-adv-x="223" 
d="M197 428h-111l18 104q23 126 109 180l62 -28q-26 -33 -38 -64.5t-22 -87.5z" />
    <glyph glyph-name="quoteright" unicode="&#x2019;" horiz-adv-x="223" 
d="M120 428l-62 28q26 33 38.5 65t21.5 87l18 104h111l-18 -104q-23 -126 -109 -180z" />
    <glyph glyph-name="quotesinglbase" unicode="&#x201a;" horiz-adv-x="223" 
d="M48 -148l-61 29q25 32 37 63.5t22 87.5l18 104h111l-18 -104q-23 -126 -109 -180z" />
    <glyph glyph-name="quotedblleft" unicode="&#x201c;" horiz-adv-x="429" 
d="M227 428h-112l18 104q12 64 37 107t73 73l61 -28q-26 -34 -38 -65.5t-21 -86.5zM432 428h-111l18 104q23 126 109 180l62 -28q-26 -33 -38 -64.5t-22 -87.5z" />
    <glyph glyph-name="quotedblright" unicode="&#x201d;" horiz-adv-x="429" 
d="M120 428l-62 28q26 33 38.5 65t21.5 87l18 104h111l-18 -104q-23 -126 -109 -180zM326 428l-62 28q26 32 38 63.5t22 88.5l18 104h111l-18 -104q-23 -126 -109 -180z" />
    <glyph glyph-name="quotedblbase" unicode="&#x201e;" horiz-adv-x="429" 
d="M19 -148l-61 29q25 33 37 64.5t22 86.5l18 104h111l-18 -104q-23 -126 -109 -180zM224 -148l-61 29q25 32 37 63.5t22 87.5l18 104h112l-19 -104q-21 -126 -109 -180z" />
    <glyph glyph-name="dagger" unicode="&#x2020;" horiz-adv-x="532" 
d="M239 -196h-106l102 579l23 86l-87 -8h-93l17 98h93l84 -8l8 86l17 97h106l-17 -97l-23 -86l87 8h93l-17 -98h-93l-84 8l-8 -86z" />
    <glyph glyph-name="daggerdbl" unicode="&#x2021;" horiz-adv-x="532" 
d="M239 -196h-106l17 97l23 86l-87 -8h-93l17 98h93l84 -8l8 86l40 228l23 86l-87 -8h-93l17 98h93l84 -8l8 86l17 97h106l-17 -97l-23 -86l87 8h93l-17 -98h-93l-84 8l-8 -86l-40 -228l-24 -86l88 8h93l-17 -98h-93l-85 8l-7 -86z" />
    <glyph glyph-name="bullet" unicode="&#x2022;" horiz-adv-x="350" 
d="M164 163q-58 0 -91.5 29.5t-33.5 75.5q0 64 41 103.5t116 39.5q58 0 91.5 -29.5t33.5 -75.5q0 -64 -41 -103.5t-116 -39.5z" />
    <glyph glyph-name="ellipsis" unicode="&#x2026;" horiz-adv-x="670" 
d="M68 -8q-33 0 -52 16.5t-19 42.5q0 37 23 59t66 22q32 0 51.5 -17t19.5 -42q0 -36 -23.5 -58.5t-65.5 -22.5zM291 -8q-32 0 -51.5 17t-19.5 42q0 37 23 59t66 22q33 0 52 -16.5t19 -42.5q0 -36 -23.5 -58.5t-65.5 -22.5zM515 -8q-33 0 -52.5 17t-19.5 42q0 37 23.5 59
t65.5 22q33 0 52.5 -17t19.5 -42q0 -36 -23.5 -58.5t-65.5 -22.5z" />
    <glyph glyph-name="perthousand" unicode="&#x2030;" horiz-adv-x="1286" 
d="M219 357q84 0 110 140q6 32 6 63q0 87 -69 87q-84 0 -110 -140q-6 -32 -6 -63q0 -87 69 -87zM212 286q-71 0 -109.5 39.5t-38.5 114.5q0 23 6 68q19 103 67.5 156.5t135.5 53.5q71 0 109.5 -39.5t38.5 -114.5q0 -24 -6 -68q-19 -103 -67.5 -156.5t-135.5 -53.5zM250 0
h-79l507 712h79zM661 65q86 0 110 140q7 38 7 63q0 87 -69 87q-84 0 -110 -140q-6 -32 -6 -63q0 -87 68 -87zM655 -6q-71 0 -110 40t-39 114q0 26 7 68q18 103 66.5 156.5t135.5 53.5q72 0 110.5 -39.5t38.5 -114.5q0 -27 -7 -68q-18 -103 -66.5 -156.5t-135.5 -53.5z
M1054 65q86 0 110 140q7 38 7 63q0 87 -69 87q-84 0 -110 -140q-6 -32 -6 -63q0 -87 68 -87zM1048 -6q-71 0 -110 40t-39 114q0 26 7 68q18 103 66.5 156.5t135.5 53.5q72 0 110.5 -39.5t38.5 -114.5q0 -27 -7 -68q-18 -103 -66.5 -156.5t-135.5 -53.5z" />
    <glyph glyph-name="guilsinglleft" unicode="&#x2039;" horiz-adv-x="272" 
d="M187 91l-136 147l17 98l189 147l-21 -119l-103 -81l74 -81z" />
    <glyph glyph-name="guilsinglright" unicode="&#x203a;" horiz-adv-x="272" 
d="M213 238l-188 -147l21 119l102 81l-74 81l21 111l135 -147z" />
    <glyph glyph-name="fraction" unicode="&#x2044;" horiz-adv-x="133" 
d="M-130 0h-79l507 712h79z" />
    <glyph glyph-name="Euro" unicode="&#x20ac;" horiz-adv-x="603" 
d="M386 -10q-135 0 -215.5 69.5t-90.5 187.5h-55l11 59h44q0 48 13 100h-40l11 59h46q44 119 141.5 188t236.5 69q109 0 164 -30l-17 -98q-60 23 -155 23q-80 0 -138 -40.5t-90 -111.5h255l-11 -59h-267q-13 -50 -14 -100h264l-11 -59h-249q11 -73 56.5 -112.5t119.5 -39.5
q92 0 156 23l-17 -98q-65 -30 -148 -30z" />
    <glyph glyph-name="trademark" unicode="&#x2122;" horiz-adv-x="591" 
d="M182 452h-58l37 211h-75l9 49h208l-9 -49h-74zM570 452h-56l35 198l-98 -198h-49l-29 198l-35 -198h-56l46 260h86l24 -171l84 171h94z" />
    <glyph glyph-name="Omega" unicode="&#x2126;" horiz-adv-x="761" 
d="M679 0h-298l16 93q103 36 163 119.5t60 211.5q0 87 -49 137t-132 50q-124 0 -194 -93t-70 -230q0 -145 130 -195l-16 -93h-297l19 111h156q-122 58 -122 210q0 174 108 287.5t295 113.5q148 0 230.5 -77t82.5 -199q0 -246 -219 -335h156z" />
    <glyph glyph-name="partialdiff" unicode="&#x2202;" horiz-adv-x="638" 
d="M234 -10q-103 0 -159.5 52.5t-56.5 130.5q0 133 86 212t229 79q124 0 173 -83q13 81 13 122q0 121 -108 121q-93 0 -137 -87h-120q65 185 280 185q93 0 151 -57t58 -165q0 -236 -114 -373t-295 -137zM256 88q78 0 134.5 53.5t85.5 153.5q-12 35 -47.5 56.5t-88.5 21.5
q-83 0 -138 -50.5t-55 -136.5q0 -45 28.5 -71.5t80.5 -26.5z" />
    <glyph glyph-name="Delta" unicode="&#x2206;" horiz-adv-x="712" 
d="M660 0h-698l390 712h168zM511 111l-89 477l-259 -477h348z" />
    <glyph glyph-name="product" unicode="&#x220f;" horiz-adv-x="590" 
d="M455 -196h-130l143 810h-221l-143 -810h-129l160 908h480z" />
    <glyph glyph-name="summation" unicode="&#x2211;" horiz-adv-x="567" 
d="M453 -196h-499l16 92l328 362l-201 362l16 92h500l-17 -98h-349l188 -335l-7 -42l-307 -335h349z" />
    <glyph glyph-name="minus" unicode="&#x2212;" horiz-adv-x="532" 
d="M498 307h-448l17 98h448z" />
    <glyph glyph-name="radical" unicode="&#x221a;" horiz-adv-x="736" 
d="M320 -196h-157l-60 318h-120l17 98h204l52 -303l412 795h141z" />
    <glyph glyph-name="infinity" unicode="&#x221e;" horiz-adv-x="776" 
d="M766 356q0 -84 -50 -132t-137 -48q-48 0 -87.5 21.5t-86.5 84.5q-46 -63 -86 -84.5t-88 -21.5q-87 0 -137 48t-50 132t50 132t137 48q48 0 88 -22t86 -85q47 63 86.5 85t87.5 22q87 0 137 -48t50 -132zM666 356q0 41 -25.5 66.5t-67.5 25.5q-34 0 -60.5 -20.5
t-58.5 -71.5q32 -51 58.5 -71.5t60.5 -20.5q42 0 67.5 25.5t25.5 66.5zM145 356q0 -41 25.5 -66.5t67.5 -25.5q34 0 60.5 21t58.5 71q-32 50 -58.5 71t-60.5 21q-42 0 -67.5 -25.5t-25.5 -66.5z" />
    <glyph glyph-name="integral" unicode="&#x222b;" horiz-adv-x="393" 
d="M-59 -196l14 87l54 -1q57 0 69 60l108 611q15 83 55 119.5t122 36.5q37 0 90 -5l-15 -87l-53 1q-59 0 -69 -60l-108 -611q-15 -83 -55 -119.5t-122 -36.5q-37 0 -90 5z" />
    <glyph glyph-name="approxequal" unicode="&#x2248;" horiz-adv-x="532" 
d="M361 161q-43 0 -103 39t-86 39q-58 0 -72 -78h-75q10 82 48.5 126t94.5 44q43 0 102.5 -38.5t86.5 -38.5q57 0 72 77h74q-10 -82 -48 -126t-94 -44zM399 380q-34 0 -69 19.5t-65.5 39t-54.5 19.5q-58 0 -72 -78h-74q10 82 48 126t94 44q43 0 103 -38.5t86 -38.5
q58 0 72 77h75q-10 -82 -48.5 -126t-94.5 -44z" />
    <glyph glyph-name="notequal" unicode="&#x2260;" horiz-adv-x="532" 
d="M196 111h-76l51 99h-138l17 93h168l54 106h-204l17 93h235l51 99h76l-51 -99h137l-17 -93h-168l-54 -106h204l-17 -93h-234z" />
    <glyph glyph-name="lessequal" unicode="&#x2264;" horiz-adv-x="532" 
d="M445 0h-448l17 98h448zM475 172l-420 161l17 98l477 161l-19 -106l-336 -104l300 -104z" />
    <glyph glyph-name="greaterequal" unicode="&#x2265;" horiz-adv-x="532" 
d="M445 0h-448l17 98h448zM503 333l-476 -161l19 106l335 104l-299 104l19 106l419 -161z" />
    <glyph glyph-name="lozenge" unicode="&#x25ca;" horiz-adv-x="532" 
d="M294 0h-146l-99 356l224 356h146l98 -356zM238 100l158 256l-67 256l-159 -256z" />
    </font>
</defs>
</svg>
